<?xml version="1.0" encoding="UTF-8"?>
<!-- Created with Inkscape (http://www.inkscape.org/) -->
<svg width="43mm" height="40mm" version="1.1" viewBox="0 0 43 40" xml:space="preserve" xmlns="http://www.w3.org/2000/svg" xmlns:xlink="http://www.w3.org/1999/xlink"><g fill="#fff" stroke="#fff" stroke-miterlimit="11.1"><circle cx="35.52" cy="13.966" r="2.1308" stroke-width=".28451" style="paint-order:markers stroke fill"/><circle cx="35.296" cy="14.67" r="2.1308" stroke-width=".28451" style="paint-order:markers stroke fill"/><g stroke-width=".14656"><circle cx="28.136" cy="21.766" r="1.0976" style="paint-order:markers stroke fill"/><circle cx="15.53" cy="15.159" r="1.0976" style="paint-order:markers stroke fill"/><circle cx="18.968" cy="26.201" r="1.0976" style="paint-order:markers stroke fill"/></g></g><g stroke-linejoin="round"><text x="41.840462" y="25.908524" fill="#22243b" font-family="Ubuntu" font-size="22.777px" font-weight="bold" stroke-width="15.811" style="paint-order:markers stroke fill" xml:space="preserve"><tspan x="41.840462" y="25.908524" fill="#22243b" stroke-width="15.811">RotaFood</tspan></text><text x="43.95591" y="34.918827" fill="#bb7a49" font-family="Ubuntu" font-size="5.1928px" font-weight="bold" stroke-width="3.6047" style="paint-order:markers stroke fill" xml:space="preserve"><tspan x="43.95591" y="34.918827" fill="#bb7a49" stroke-width="3.6047">INTELIGÊNCIA NA ENTREGA DE COMIDA</tspan></text><path d="m5.1376 2.6916v34.466" fill="#22243b" stroke="#22243b" stroke-miterlimit="11.1" stroke-width="2.3" style="paint-order:markers stroke fill"/><path d="m3.9929 36.797 35.757-0.028831" fill="#403e50" stroke="#22243b" stroke-miterlimit="11.1" stroke-width="2.3119" style="paint-order:markers stroke fill"/></g><g><circle transform="rotate(-6.8853)" cx="-384.42" cy="-262.31" r="1.7901" fill="none" stroke="#22243b" stroke-linejoin="bevel" stroke-width=".89351" style="paint-order:markers stroke fill"/><text x="-395.43604" y="-210.36737" fill="#22243b" font-family="Ubuntu" font-size="17.861px" font-weight="bold" stroke-linejoin="round" stroke-width="12.399" style="paint-order:markers stroke fill" xml:space="preserve"><tspan x="-395.43604" y="-210.36737" fill="#22243b" stroke-width="12.399">RotaFood</tspan></text><text x="-393.77716" y="-203.30177" fill="#bb7a49" font-family="Ubuntu" font-size="4.072px" font-weight="bold" stroke-linejoin="round" stroke-width="2.8267" style="paint-order:markers stroke fill" xml:space="preserve"><tspan x="-393.77716" y="-203.30177" fill="#bb7a49" stroke-width="2.8267">INTELIGÊNCIA NA ENTREGA DE COMIDA</tspan></text></g><g fill="#403e50"><g stroke="#22243b" stroke-linejoin="round" stroke-miterlimit="11.1"><g stroke-dasharray="0.668288, 0.668288" stroke-width=".66829"><path d="m-415.04-216.13-6.0792-1.6101" style="paint-order:markers stroke fill"/><path d="m-411.36-216.38 1.7257-3.2413" style="paint-order:markers stroke fill"/><path d="m-404.02-224.24-4.4605 3.2557" style="paint-order:markers stroke fill"/><path d="m-400.07-218.36-2.6141-5.445" style="paint-order:markers stroke fill"/><path d="m-401.4-217.23-9.481 1.6344" style="paint-order:markers stroke fill"/><path d="m-419.45-202.69-5.8-5.0525" style="paint-order:markers stroke fill"/><path d="m-413.63-211.61-4.3557 8.9863" style="paint-order:markers stroke fill"/><path d="m-411.2-212.54 4.1675 5.6151" style="paint-order:markers stroke fill"/><path d="m-401.87-204.54-4.0225-1.5262" style="paint-order:markers stroke fill"/><path d="m-401.65-209.57 0.84577 4.3733" style="paint-order:markers stroke fill"/><path d="m-402.85-210.54-7.9513-2.6836" style="paint-order:markers stroke fill"/><path d="m-414.37-212.09-10.595 3.059" style="paint-order:markers stroke fill"/><path d="m-422.3-218.95-2.4609-2.9469" style="paint-order:markers stroke fill"/><path d="m-417.6-223.64-6.9508 0.78996" style="paint-order:markers stroke fill"/><path d="m-414.36-216.57-1.3056-6.6738" style="paint-order:markers stroke fill"/></g><path d="m-428.15-229.8v32.519" stroke-width="1.206" style="paint-order:markers stroke fill"/><path d="m-430.36-199.98h34.061" stroke-width="1.206" style="paint-order:markers stroke fill"/></g><g transform="matrix(.11406 0 0 .11406 -427.06 -235.52)"><circle transform="translate(-21.328 -.47649)" cx="173.83" cy="118.67" r="12.064" fill="#22243b" stroke="#22243b" stroke-linejoin="round" stroke-miterlimit="11.1" stroke-width=".6" style="paint-order:markers stroke fill"/><path transform="translate(-21.328 -.47649)" d="m185.22 123.06c-2.4713 7.511-6.8557 14.435-11.463 21.291-6.4728-8.0514-10.4-16.149-11.746-23.279 5.8914 9.4182 12.579 14.764 23.209 1.988z" fill="#22243b" stroke="#22243b" stroke-linejoin="round" stroke-miterlimit="11.1" stroke-width=".6" style="paint-order:markers stroke fill"/><circle cx="152.64" cy="117.43" r="4.5665" fill="#fff" style="paint-order:markers stroke fill"/></g><g transform="matrix(.11406 0 0 .11406 -420.49 -240.45)"><circle transform="translate(-21.328 -.47649)" cx="173.83" cy="118.67" r="12.064" fill="#22243b" stroke="#22243b" stroke-linejoin="round" stroke-miterlimit="11.1" stroke-width=".6" style="paint-order:markers stroke fill"/><path transform="translate(-21.328 -.47649)" d="m185.22 123.06c-2.4713 7.511-6.8557 14.435-11.463 21.291-6.4728-8.0514-10.4-16.149-11.746-23.279 5.8914 9.4182 12.579 14.764 23.209 1.988z" fill="#22243b" stroke="#22243b" stroke-linejoin="round" stroke-miterlimit="11.1" stroke-width=".6" style="paint-order:markers stroke fill"/><circle cx="152.64" cy="117.43" r="4.5665" fill="#fff" style="paint-order:markers stroke fill"/></g><g transform="matrix(.11406 0 0 .11406 -417.41 -233.93)"><circle transform="translate(-21.328 -.47649)" cx="173.83" cy="118.67" r="12.064" fill="#22243b" stroke="#22243b" stroke-linejoin="round" stroke-miterlimit="11.1" stroke-width=".6" style="paint-order:markers stroke fill"/><path transform="translate(-21.328 -.47649)" d="m185.22 123.06c-2.4713 7.511-6.8557 14.435-11.463 21.291-6.4728-8.0514-10.4-16.149-11.746-23.279 5.8914 9.4182 12.579 14.764 23.209 1.988z" fill="#22243b" stroke="#22243b" stroke-linejoin="round" stroke-miterlimit="11.1" stroke-width=".6" style="paint-order:markers stroke fill"/><circle cx="152.64" cy="117.43" r="4.5665" fill="#fff" style="paint-order:markers stroke fill"/></g><g transform="matrix(.11406 0 0 .11406 -419.26 -226.32)"><circle transform="translate(-21.328 -.47649)" cx="173.83" cy="118.67" r="12.064" fill="#22243b" stroke="#22243b" stroke-linejoin="round" stroke-miterlimit="11.1" stroke-width=".6" style="paint-order:markers stroke fill"/><path transform="translate(-21.328 -.47649)" d="m185.22 123.06c-2.4713 7.511-6.8557 14.435-11.463 21.291-6.4728-8.0514-10.4-16.149-11.746-23.279 5.8914 9.4182 12.579 14.764 23.209 1.988z" fill="#22243b" stroke="#22243b" stroke-linejoin="round" stroke-miterlimit="11.1" stroke-width=".6" style="paint-order:markers stroke fill"/><circle cx="152.64" cy="117.43" r="4.5665" fill="#fff" style="paint-order:markers stroke fill"/></g><g transform="matrix(.11406 0 0 .11406 -418.47 -220.59)"><circle transform="translate(-21.328 -.47649)" cx="173.83" cy="118.67" r="12.064" fill="#22243b" stroke="#22243b" stroke-linejoin="round" stroke-miterlimit="11.1" stroke-width=".6" style="paint-order:markers stroke fill"/><path transform="translate(-21.328 -.47649)" d="m185.22 123.06c-2.4713 7.511-6.8557 14.435-11.463 21.291-6.4728-8.0514-10.4-16.149-11.746-23.279 5.8914 9.4182 12.579 14.764 23.209 1.988z" fill="#22243b" stroke="#22243b" stroke-linejoin="round" stroke-miterlimit="11.1" stroke-width=".6" style="paint-order:markers stroke fill"/><circle cx="152.64" cy="117.43" r="4.5665" fill="#fff" style="paint-order:markers stroke fill"/></g><g transform="matrix(.11406 0 0 .11406 -423.3 -222.3)"><circle transform="translate(-21.328 -.47649)" cx="173.83" cy="118.67" r="12.064" fill="#22243b" stroke="#22243b" stroke-linejoin="round" stroke-miterlimit="11.1" stroke-width=".6" style="paint-order:markers stroke fill"/><path transform="translate(-21.328 -.47649)" d="m185.22 123.06c-2.4713 7.511-6.8557 14.435-11.463 21.291-6.4728-8.0514-10.4-16.149-11.746-23.279 5.8914 9.4182 12.579 14.764 23.209 1.988z" fill="#22243b" stroke="#22243b" stroke-linejoin="round" stroke-miterlimit="11.1" stroke-width=".6" style="paint-order:markers stroke fill"/><circle cx="152.64" cy="117.43" r="4.5665" fill="#fff" style="paint-order:markers stroke fill"/></g><g transform="matrix(.11406 0 0 .11406 -436.12 -218.79)"><circle transform="translate(-21.328 -.47649)" cx="173.83" cy="118.67" r="12.064" fill="#22243b" stroke="#22243b" stroke-linejoin="round" stroke-miterlimit="11.1" stroke-width=".6" style="paint-order:markers stroke fill"/><path transform="translate(-21.328 -.47649)" d="m185.22 123.06c-2.4713 7.511-6.8557 14.435-11.463 21.291-6.4728-8.0514-10.4-16.149-11.746-23.279 5.8914 9.4182 12.579 14.764 23.209 1.988z" fill="#22243b" stroke="#22243b" stroke-linejoin="round" stroke-miterlimit="11.1" stroke-width=".6" style="paint-order:markers stroke fill"/><circle cx="152.64" cy="117.43" r="4.5665" fill="#fff" style="paint-order:markers stroke fill"/></g><g transform="matrix(.11406 0 0 .11406 -442.45 -224.26)"><circle transform="translate(-21.328 -.47649)" cx="173.83" cy="118.67" r="12.064" fill="#22243b" stroke="#22243b" stroke-linejoin="round" stroke-miterlimit="11.1" stroke-width=".6" style="paint-order:markers stroke fill"/><path transform="translate(-21.328 -.47649)" d="m185.22 123.06c-2.4713 7.511-6.8557 14.435-11.463 21.291-6.4728-8.0514-10.4-16.149-11.746-23.279 5.8914 9.4182 12.579 14.764 23.209 1.988z" fill="#22243b" stroke="#22243b" stroke-linejoin="round" stroke-miterlimit="11.1" stroke-width=".6" style="paint-order:markers stroke fill"/><circle cx="152.64" cy="117.43" r="4.5665" fill="#fff" style="paint-order:markers stroke fill"/></g><g transform="matrix(.11406 0 0 .11406 -439.17 -233.66)"><circle transform="translate(-21.328 -.47649)" cx="173.83" cy="118.67" r="12.064" fill="#22243b" stroke="#22243b" stroke-linejoin="round" stroke-miterlimit="11.1" stroke-width=".6" style="paint-order:markers stroke fill"/><path transform="translate(-21.328 -.47649)" d="m185.22 123.06c-2.4713 7.511-6.8557 14.435-11.463 21.291-6.4728-8.0514-10.4-16.149-11.746-23.279 5.8914 9.4182 12.579 14.764 23.209 1.988z" fill="#22243b" stroke="#22243b" stroke-linejoin="round" stroke-miterlimit="11.1" stroke-width=".6" style="paint-order:markers stroke fill"/><circle cx="152.64" cy="117.43" r="4.5665" fill="#fff" style="paint-order:markers stroke fill"/></g><g transform="matrix(.11406 0 0 .11406 -442.05 -238.23)"><circle transform="translate(-21.328 -.47649)" cx="173.83" cy="118.67" r="12.064" fill="#22243b" stroke="#22243b" stroke-linejoin="round" stroke-miterlimit="11.1" stroke-width=".6" style="paint-order:markers stroke fill"/><path transform="translate(-21.328 -.47649)" d="m185.22 123.06c-2.4713 7.511-6.8557 14.435-11.463 21.291-6.4728-8.0514-10.4-16.149-11.746-23.279 5.8914 9.4182 12.579 14.764 23.209 1.988z" fill="#22243b" stroke="#22243b" stroke-linejoin="round" stroke-miterlimit="11.1" stroke-width=".6" style="paint-order:markers stroke fill"/><circle cx="152.64" cy="117.43" r="4.5665" fill="#fff" style="paint-order:markers stroke fill"/></g><g transform="matrix(.11406 0 0 .11406 -433.85 -239.04)"><circle transform="translate(-21.328 -.47649)" cx="173.83" cy="118.67" r="12.064" fill="#22243b" stroke="#22243b" stroke-linejoin="round" stroke-miterlimit="11.1" stroke-width=".6" style="paint-order:markers stroke fill"/><path transform="translate(-21.328 -.47649)" d="m185.22 123.06c-2.4713 7.511-6.8557 14.435-11.463 21.291-6.4728-8.0514-10.4-16.149-11.746-23.279 5.8914 9.4182 12.579 14.764 23.209 1.988z" fill="#22243b" stroke="#22243b" stroke-linejoin="round" stroke-miterlimit="11.1" stroke-width=".6" style="paint-order:markers stroke fill"/><circle cx="152.64" cy="117.43" r="4.5665" fill="#fff" style="paint-order:markers stroke fill"/></g></g><g stroke="#22243b" stroke-linejoin="round"><ellipse cx="35.58" cy="14.268" rx="2.6585" ry="2.6572" fill="none" stroke-width="1.478"/><circle cx="15.539" cy="15.091" r="1.448" fill="none" stroke-width=".87002"/><circle cx="22.873" cy="7.6718" r="1.448" fill="#22243b" stroke-width=".87002"/><circle cx="9.7205" cy="12.912" r="1.4039" fill="#22243b" stroke-width=".95871"/><circle cx="18.925" cy="26.213" r="1.448" fill="none" stroke-width=".87002"/></g><g fill="#22243b" stroke="#22243b"><circle cx="26.604" cy="30.896" r="1.4796" stroke-linejoin="round" stroke-width=".80736"/><circle cx="12.401" cy="24.03" r="1.4796" stroke-linejoin="round" stroke-width=".80736"/><g stroke-width="1.7"><path d="m15.258 29.165 9.9386 1.7297"/><g><path d="m5.5439 36.077 12.361-8.8976"/><path d="m16.636 14.015 5.8156-5.7605"/><path d="m14.038 14.594-3.5414-0.95966"/><path d="m19.916 25.786 7.3526-3.5178"/><path d="m29.176 20.929 4.9265-4.5518"/><path d="m18.286 24.789-2.4518-8.3214"/><path d="m12.112 31.412 0.27982-6.3392"/></g></g></g><circle cx="28.154" cy="21.723" r="1.448" fill="none" stroke="#22243b" stroke-linejoin="round" stroke-width=".87002"/></svg>
